<svg width="52" height="17" viewBox="0 0 52 17" fill="none" xmlns="http://www.w3.org/2000/svg">
<path d="M8.1 5.12C10.0067 5.12 11.4133 5.57333 12.32 6.48C13.24 7.38667 13.7 8.79333 13.7 10.7C13.7 12.6333 13.24 14.06 12.32 14.98C11.4133 15.8867 10.0067 16.34 8.1 16.34C5.92667 16.34 4.42 15.62 3.58 14.18V16H0.22V0.799999H3.58V7.2C4.40667 5.81333 5.91333 5.12 8.1 5.12ZM7 13.72C8.18667 13.72 9.03333 13.4867 9.54 13.02C10.06 12.5533 10.32 11.78 10.32 10.7C10.32 9.64667 10.06 8.88667 9.54 8.42C9.03333 7.95333 8.2 7.72 7.04 7.72C5.92 7.72 5.05333 7.95333 4.44 8.42C3.82667 8.88667 3.50667 9.54 3.48 10.38V10.88C3.48 11.76 3.78667 12.4533 4.4 12.96C5.01333 13.4667 5.88 13.72 7 13.72ZM28.4083 10.68V11.5H18.6283C18.7349 12.38 19.0416 13 19.5483 13.36C20.0549 13.72 20.8549 13.9 21.9483 13.9C23.8283 13.9 24.8549 13.4933 25.0283 12.68H28.2083C27.9816 15.12 25.8749 16.34 21.8883 16.34C19.6083 16.34 17.9349 15.88 16.8683 14.96C15.8016 14.04 15.2683 12.6 15.2683 10.64C15.2683 8.74667 15.7949 7.35333 16.8483 6.46C17.9149 5.56667 19.5816 5.12 21.8483 5.12C24.1149 5.12 25.7749 5.56 26.8283 6.44C27.8816 7.30667 28.4083 8.72 28.4083 10.68ZM21.8683 7.56C20.8283 7.56 20.0616 7.71333 19.5683 8.02C19.0883 8.32667 18.7883 8.85333 18.6683 9.6H25.0283C25.0016 8.88 24.7349 8.36 24.2283 8.04C23.7349 7.72 22.9483 7.56 21.8683 7.56ZM38.5177 5.46V8.1H34.7977V11.78C34.7977 12.4333 34.9377 12.9133 35.2177 13.22C35.511 13.5133 35.9777 13.66 36.6177 13.66C37.191 13.66 37.8243 13.5067 38.5177 13.2V15.8C37.891 16.16 37.071 16.34 36.0577 16.34C34.4443 16.34 33.271 15.98 32.5377 15.26C31.8043 14.5267 31.4377 13.3667 31.4377 11.78V8.1H29.5377V5.46H31.4377V2.82H34.7977V5.46H38.5177ZM45.8725 5.12C47.8192 5.12 49.2525 5.47333 50.1725 6.18C51.1058 6.87333 51.5725 7.96 51.5725 9.44V16H48.1925V14.32C47.3658 15.6667 46.0525 16.34 44.2525 16.34C42.8258 16.34 41.7458 16.0667 41.0125 15.52C40.2925 14.96 39.9325 14.1533 39.9325 13.1C39.9325 10.82 41.7125 9.68 45.2725 9.68C46.3925 9.68 47.3658 9.78 48.1925 9.98V9.44C48.1925 8.81333 48.0058 8.36 47.6325 8.08C47.2592 7.78667 46.6725 7.64 45.8725 7.64C44.4592 7.64 43.6992 8 43.5925 8.72H40.5125C40.6325 6.32 42.4192 5.12 45.8725 5.12ZM45.3525 13.98C46.2192 13.98 46.9058 13.8 47.4125 13.44C47.9192 13.0667 48.1792 12.54 48.1925 11.86V11.82C47.4858 11.6467 46.5992 11.56 45.5325 11.56C43.9058 11.56 43.0925 11.9533 43.0925 12.74C43.0925 13.5667 43.8458 13.98 45.3525 13.98Z" fill="url(#paint0_linear_7672_413734)"/>
<defs>
<linearGradient id="paint0_linear_7672_413734" x1="51" y1="6" x2="1.5" y2="15" gradientUnits="userSpaceOnUse">
<stop stop-color="#FF0083"/>
<stop offset="1" stop-color="#FF9736"/>
</linearGradient>
</defs>
</svg>
